<?xml version="1.0" encoding="UTF-8"?>
<svg id="Layer_1" data-name="Layer 1" xmlns="http://www.w3.org/2000/svg" viewBox="0 0 140 35">
  <defs>
    <style>
      .cls-1 {
        font-family: FRAC-ExtraBold, FRAC;
        font-size: 14px;
        font-weight: 700;
        letter-spacing: .14em;
      }

      .cls-1, .cls-2 {
        fill: #411c0a;
      }

      .cls-3 {
        fill: #65bfa1;
      }
    </style>
  </defs>
  <path class="cls-2" d="m40.51,12.48h10.04v10.04h-10.04s0-10.04,0-10.04Zm1.1,8.93h7.82v-7.82h-7.82v7.82Z"/>
  <path class="cls-3" d="m40.75,25.26c-.76,0-1.28-.77-1.38-2.05-.11-1.31-.55-2.14-1.3-2.46-.58-.26-.95-.76-.95-1.33,0-.51.29-.93.8-1.17.09,0,.16-.01.25-.01.96,0,1.66.47,1.95,1.06.4.76.68,1.12.82,1.27l.3.35.62-.86c.27-.45,1.08-1.46,1.76-2.29l3.04-3.61c.97-1.16,2.04-2.4,2.38-2.75.32-.36.96-1.11,1.37-1.63l1.06-1.36c.44-.55.85-1.01,1.05-1.22.2-.2.44-.63.5-.93.1-.4.36-.75.73-.97.26-.16.51-.25.73-.25.55,0,1.07.45,1.69,1.13.66.72.87,1.11.76,1.38s-.47.42-1.33.51c-1.11.12-1.2.17-2.23,1.27-.6.63-1.78,1.99-2.59,2.99l-2.67,3.24c-4.23,5.12-5.69,7.21-5.79,8.33-.05.46-.25.76-.72,1.08-.3.2-.6.3-.86.3"/>
  <text class="cls-1" transform="translate(56.96 22.52)"><tspan x="0" y="0">IDOL</tspan></text>
</svg>