<?xml version="1.0" encoding="UTF-8"?>
<svg id="Layer_1" data-name="Layer 1" xmlns="http://www.w3.org/2000/svg" viewBox="0 0 140 35">
  <defs>
    <style>
      .cls-1 {
        fill: #fdd121;
      }

      .cls-2 {
        font-family: FRAC-ExtraBold, FRAC;
        font-size: 14px;
        font-weight: 700;
        letter-spacing: .14em;
      }

      .cls-2, .cls-3 {
        fill: #411c0a;
      }
    </style>
  </defs>
  <path class="cls-3" d="m28.52,12.48h10.04v10.04h-10.04s0-10.04,0-10.04Zm1.1,8.93h7.82v-7.82h-7.82v7.82Z"/>
  <path class="cls-1" d="m31.08,20.56c-1.01,0-2.23-.83-2.8-1.9l-.57-1.1c-.12-.19-.54-1.06-.86-1.8-.43-.97-.63-1.53-.47-1.85.1-.2.31-.34.75-.44h.07c1.01,0,1.38.83,1.59,1.47.27.72.61,1.46,1.02,2.22.49.83.57.95,1.28,1h.09c.5,0,.78-.07.93-.17.2-.16.54-.36.8-.5.51-.26,1.87-1.51,2.57-2.39.83-1.05,1.62-2.46,3.14-5.57.83-1.67,1.57-3.19,1.66-3.34,1.47-2.78,1.86-3.56,1.86-3.88,0-.22.12-.57.31-.76.22-.26.52-.4.86-.4.49,0,.95.26,1.26.7.32.42.32.54.07,1.15-.15.36-.43.77-.64.92-.19.15-.64.72-.98,1.26-.65.98-.86,1.43-2.02,3.97-1.94,4.31-3.49,6.9-5.17,8.68-.81.87-3.06,2.45-3.5,2.45-.44.19-.72.3-1.25.3"/>
  <text class="cls-2" transform="translate(44.79 22.52)"><tspan x="0" y="0">IMOUTO</tspan></text>
</svg>