<?xml version="1.0" encoding="UTF-8"?>
<svg id="Layer_1" data-name="Layer 1" xmlns="http://www.w3.org/2000/svg" viewBox="0 0 140.12 35">
  <defs>
    <style>
      .cls-1 {
        fill: #e94e70;
      }

      .cls-2 {
        fill: #411c0a;
      }
    </style>
  </defs>
  <path class="cls-2" d="m26.8,12.48h10.04v10.04h-10.04v-10.04Zm1.1,8.93h7.82v-7.82h-7.82v7.82Z"/>
  <path class="cls-1" d="m30.16,23.59c-.96-.01-1.25-.42-1.51-1.34-.14-.47-.39-1.18-.59-1.62-.21-.44-.36-.92-.36-1.06,0-.51-.96-2.69-1.37-3.06-.41-.4-.56-.95-.37-1.43.19-.44.64-.71,1.16-.71.88,0,1.59.6,1.76,1.49.12.65.56,2.14.87,2.9l.29.75.56-.14c.75-1.41,4.03-5.64,5.23-7.05.77-.91,2.4-2.7,3.67-4.01,1.24-1.27,2.05-2.2,2.23-2.45.1-.29.3-.51.5-.65.26-.17.57-.27.9-.27.35,0,.74.11,1.12.35.68.41.95,1.13.67,1.85-.14.39-.44.59-1.12.77-.72.17-1.21.54-2.78,2.05-4.16,3.99-8.77,10.07-9.31,12.32-.2.77-.8,1.31-1.53,1.31h-.02Z"/>
  <g>
    <path class="cls-2" d="m45.7,20.39l1.08-1.08,1.67,1.71h2.21l1.01-1.01v-.83l-1.01-.99h-2.86l-1.86-1.86v-2.04l1.86-1.85h3.49l2.11,2.09-1.06,1.06-1.68-1.68h-2.21l-1.01.99v.84l1.01.98h2.84l1.88,1.86v2.04l-1.88,1.86h-3.49l-2.1-2.1Z"/>
    <path class="cls-2" d="m57.42,22.39v-3.67l3.07-6.29h1.08l3.07,6.29v3.67h-1.5v-2.76h-4.21v2.76h-1.5Zm1.89-4.23h3.43l-1.71-3.48-1.72,3.48Z"/>
    <path class="cls-2" d="m68.9,22.49v-10.05h5.35l1.86,1.85v6.34l-1.86,1.86h-5.35Zm1.5-1.47h3.22l.99-1.01v-5.11l-.99-.99h-3.22v7.11Z"/>
    <path class="cls-2" d="m80.38,22.49v-1.47h2.76v-7.11h-2.76v-1.47h7.01v1.47h-2.76v7.11h2.76v1.47h-7.01Z"/>
    <path class="cls-2" d="m91.62,20.39l1.08-1.08,1.67,1.71h2.21l1.01-1.01v-.83l-1.01-.99h-2.86l-1.86-1.86v-2.04l1.86-1.85h3.49l2.11,2.09-1.06,1.06-1.68-1.68h-2.21l-1.01.99v.84l1.01.98h2.84l1.88,1.86v2.04l-1.88,1.86h-3.49l-2.1-2.1Z"/>
    <path class="cls-2" d="m103.34,13.91v-1.47h7.01v1.47h-2.74v8.48h-1.51v-8.48h-2.76Z"/>
  </g>
</svg>