<?xml version="1.0" encoding="UTF-8"?>
<svg xmlns="http://www.w3.org/2000/svg" viewBox="0 0 35 35">
  <defs>
    <style>
      .cls-1 {
        fill: #e94e70;
      }

      .cls-2 {
        fill: #411c0a;
      }
    </style>
  </defs>
  <g id="Layer_3" data-name="Layer 3">
    <path class="cls-2" d="m12.48,12.48h10.04v10.04h-10.04v-10.04Zm1.1,8.93h7.82v-7.82h-7.82s0,7.82,0,7.82Z"/>
  </g>
  <g id="Sadistic">
    <path class="cls-1" d="m15.84,23.59c-.96-.01-1.25-.42-1.51-1.34-.14-.47-.39-1.18-.59-1.62-.21-.44-.36-.92-.36-1.06,0-.51-.96-2.69-1.37-3.06-.41-.4-.56-.95-.37-1.43.19-.44.64-.71,1.16-.71.88,0,1.59.6,1.76,1.49.12.65.56,2.14.87,2.9l.29.75.56-.14c.75-1.41,4.03-5.64,5.23-7.05.77-.91,2.4-2.7,3.67-4.01,1.24-1.27,2.05-2.2,2.23-2.45.1-.29.3-.51.5-.65.26-.17.57-.27.9-.27.35,0,.74.11,1.12.35.68.41.95,1.13.67,1.85-.14.39-.44.59-1.12.77-.72.17-1.21.54-2.78,2.05-4.16,3.99-8.77,10.07-9.31,12.32-.2.77-.8,1.31-1.53,1.31h-.02Z"/>
  </g>
</svg>