<?xml version="1.0" encoding="UTF-8"?>
<svg xmlns="http://www.w3.org/2000/svg" viewBox="0 0 35 35">
  <defs>
    <style>
      .cls-1 {
        fill: #924898;
      }

      .cls-2 {
        fill: #411c0a;
      }
    </style>
  </defs>
  <g id="Layer_3" data-name="Layer 3">
    <path class="cls-2" d="m12.48,12.48h10.04v10.04h-10.04v-10.04Zm1.1,8.93h7.82v-7.82h-7.82s0,7.82,0,7.82Z"/>
  </g>
  <g id="Onee-San">
    <path class="cls-1" d="m16.08,25.59c-.26,0-.51-.05-.7-.14-.56-.25-.72-.76-1.47-3.85-.24-1-.58-2.42-.82-3.03l-.32-.86-.77,1.9c-.31.9-.42,1.03-1.01,1.17-.12.01-.25.01-.35.01-.57,0-.92-.17-1.1-.95-.11-.5.06-.87,1.31-2.62,1.1-1.53,1.52-2.02,2.03-2.1h.06c.3,0,.51.06.76.15.66.26.68.26,1.63,3.93.14.55.64,2.14.64,2.14l.4-.71c1.72-3.09,2.64-4.51,6.13-9.38l1.05-1.49c1.02-1.27,1.39-1.66,1.82-2.03l1.21-1.05c.39-.36.58-.54,1-.59.11,0,.2,0,.29,0,.4,0,.6.04.8.11.66.21,1.05.82,1,1.52-.05.7-.51,1.23-1.15,1.33-.91.02-1.2.04-1.46.09-.7.22-1.58,1.03-1.86,1.27-3.05,3.93-6.92,10.24-7.63,12.84-.58,2.13-.62,2.13-1.15,2.28l-.32.04-.02.03Z"/>
  </g>
</svg>