<?xml version="1.0" encoding="UTF-8"?>
<svg id="Layer_1" data-name="Layer 1" xmlns="http://www.w3.org/2000/svg" viewBox="0 0 140 35">
  <defs>
    <style>
      .cls-1 {
        font-family: FRAC-ExtraBold, FRAC;
        font-size: 14px;
        font-weight: 700;
        letter-spacing: .14em;
      }

      .cls-1, .cls-2 {
        fill: #411c0a;
      }

      .cls-3 {
        fill: #37bef0;
      }
    </style>
  </defs>
  <path class="cls-2" d="m15.16,12.48h10.04v10.04h-10.04v-10.04Zm1.1,8.93h7.82v-7.82h-7.82v7.82Z"/>
  <path class="cls-3" d="m18.25,24.38c-.39,0-.71-.06-.88-.19-.36-.2-.43-.49-.59-1.89-.16-1.49-.83-3.72-1.47-4.87-.14-.19-.55-.5-1.03-.68-1.52-.61-1.47-1.42-1.31-1.96.2-.6.66-.92,1.52-1,.96,0,2.94,2.15,3.01,3.05.35.42.49.87.57,1.21l.22.87.54-.42c1.44-2.59,4.43-6.38,6.32-8.07,2.03-1.8,4.56-3.24,6.45-3.65.38-.09.66-.2.78-.26.22-.22.43-.31.73-.34h.06c.96,0,1.87.25,2.03.65.2.41-.06,1.33-.5,1.79-.22.25-.44.35-.75.37h-.14c-.45,0-.81-.04-1.23-.11-1.31.09-3.06.8-4.41,1.67-.9.56-1.98,1.52-3.14,2.75-.97,1.05-1.56,1.74-1.71,1.94-.07.17-.17.39-.51.81-.56.72-1.72,2.71-2.43,4.21-.35.7-.52,1.41-.57,2.22-.02.6-.12,1.33-.25,1.51-.12.19-.51.32-1.03.37h-.31l.03.02Z"/>
  <text class="cls-1" transform="translate(35.27 22.52)"><tspan x="0" y="0">TSUNDERE</tspan></text>
</svg>