<?xml version="1.0" encoding="UTF-8"?>
<svg id="Layer_2" data-name="Layer 2" xmlns="http://www.w3.org/2000/svg" viewBox="0 0 15 15">
  <defs>
    <style>
      .cls-1 {
        fill: currentColor; 
      }
    </style>
  </defs>
  <g id="Layer_2-2" data-name="Layer 2">
    <path id="Norm" d="m3.35,15c-.75,0-.98-.34-1.18-1.08-.11-.38-.31-.95-.46-1.3-.16-.35-.28-.74-.28-.85,0-.41-.75-2.16-1.07-2.46-.32-.32-.44-.76-.29-1.15.15-.35.5-.57.91-.57.69,0,1.25.48,1.38,1.2.09.52.44,1.72.68,2.33l.23.6.44-.11c.59-1.13,3.16-4.54,4.1-5.67.6-.73,1.88-2.17,2.87-3.23.97-1.02,1.61-1.77,1.75-1.97.08-.23.23-.41.39-.52.2-.14.45-.22.7-.22.27,0,.58.09.88.28.53.33.74.91.52,1.49-.11.31-.34.47-.88.62-.56.14-.95.43-2.18,1.65-3.26,3.21-6.87,8.1-7.29,9.91-.16.62-.63,1.05-1.2,1.05h-.02Z"/>
  </g>
</svg>