<?xml version="1.0" encoding="UTF-8"?>
<svg id="Layer_1" data-name="Layer 1" xmlns="http://www.w3.org/2000/svg" viewBox="0 0 140 35">
  <defs>
    <style>
      .cls-1 {
        fill: #411c0a;
      }
    </style>
  </defs>
  <path class="cls-1" d="m28.52,12.48h10.04v10.04h-10.04v-10.04Zm1.1,8.93h7.82v-7.82h-7.82v7.82Z"/>
  <g>
    <path class="cls-1" d="m45.37,22.49v-1.47h2.76v-7.11h-2.76v-1.47h7.01v1.47h-2.76v7.11h2.76v1.47h-7.01Z"/>
    <path class="cls-1" d="m56.85,22.39v-9.95h1.29l2.31,3.53,2.32-3.53h1.29v9.95h-1.5v-6.89l-1.64,2.51h-.94l-1.64-2.51v6.89h-1.5Z"/>
    <path class="cls-1" d="m68.33,20.63v-6.34l1.85-1.85h3.49l1.88,1.85v6.34l-1.88,1.86h-3.49l-1.85-1.86Zm1.5-.62l.99,1.01h2.23l.99-1.01v-5.11l-.99-.99h-2.23l-.99.99v5.11Z"/>
    <path class="cls-1" d="m79.81,20.62v-8.08h1.5v7.46l1.01,1.01h2.21l.99-1.01v-7.46h1.5v8.08l-1.86,1.86h-3.49l-1.86-1.86Z"/>
    <path class="cls-1" d="m91.29,13.91v-1.47h7.01v1.47h-2.74v8.48h-1.51v-8.48h-2.76Z"/>
    <path class="cls-1" d="m102.77,20.63v-6.34l1.85-1.85h3.49l1.88,1.85v6.34l-1.88,1.86h-3.49l-1.85-1.86Zm1.5-.62l.99,1.01h2.23l.99-1.01v-5.11l-.99-.99h-2.23l-.99.99v5.11Z"/>
  </g>
</svg>