<?xml version="1.0" encoding="UTF-8"?>
<svg id="Layer_1" data-name="Layer 1" xmlns="http://www.w3.org/2000/svg" viewBox="0 0 140 35">
  <defs>
    <style>
      .cls-1 {
        fill: #411c0a;
      }
    </style>
  </defs>
  <path class="cls-1" d="m16.97,12.48h10.04v10.04h-10.04v-10.04Zm1.1,8.93h7.82v-7.82h-7.82v7.82Z"/>
  <g>
    <path class="cls-1" d="m34.74,20.63v-6.34l1.85-1.85h3.49l1.88,1.85v6.34l-1.88,1.86h-3.49l-1.85-1.86Zm1.5-.62l.99,1.01h2.23l.99-1.01v-5.11l-.99-.99h-2.23l-.99.99v5.11Z"/>
    <path class="cls-1" d="m46.26,22.39v-9.95h1.27l4.44,6.94v-6.85h1.5v9.95h-1.27l-4.44-6.96v6.86h-1.5Z"/>
    <path class="cls-1" d="m57.7,22.49v-10.05h7.13v1.47h-5.63v2.81h3.37v1.47h-3.37v2.83h5.63v1.47h-7.13Z"/>
    <path class="cls-1" d="m69.18,22.49v-10.05h7.13v1.47h-5.63v2.81h3.37v1.47h-3.37v2.83h5.63v1.47h-7.13Z"/>
    <path class="cls-1" d="m80.65,18.19v-1.47h7.01v1.47h-7.01Z"/>
    <path class="cls-1" d="m91.9,20.39l1.08-1.08,1.67,1.71h2.21l1.01-1.01v-.83l-1.01-.99h-2.86l-1.86-1.86v-2.04l1.86-1.85h3.49l2.11,2.09-1.06,1.06-1.68-1.68h-2.21l-1.01.99v.84l1.01.98h2.84l1.88,1.86v2.04l-1.88,1.86h-3.49l-2.1-2.1Z"/>
    <path class="cls-1" d="m103.61,22.39v-3.67l3.07-6.29h1.08l3.07,6.29v3.67h-1.5v-2.76h-4.21v2.76h-1.5Zm1.89-4.23h3.43l-1.71-3.49-1.72,3.49Z"/>
    <path class="cls-1" d="m115.14,22.39v-9.95h1.27l4.44,6.94v-6.85h1.5v9.95h-1.27l-4.44-6.96v6.86h-1.5Z"/>
  </g>
</svg>