<?xml version="1.0" encoding="UTF-8"?>
<svg id="Layer_1" data-name="Layer 1" xmlns="http://www.w3.org/2000/svg" viewBox="0 0 140 35">
  <defs>
    <style>
      .cls-1 {
        fill: #411c0a;
      }
    </style>
  </defs>
  <path class="cls-1" d="m20.1,12.48h10.04v10.04h-10.04s0-10.04,0-10.04Zm1.1,8.93h7.82v-7.82h-7.82v7.82Z"/>
  <g>
    <path class="cls-1" d="m39.88,20.39l1.08-1.08,1.67,1.71h2.21l1.01-1.01v-.83l-1.01-.99h-2.86l-1.86-1.86v-2.04l1.86-1.85h3.49l2.11,2.09-1.06,1.06-1.68-1.68h-2.21l-1.01.99v.84l1.01.98h2.84l1.88,1.86v2.04l-1.88,1.86h-3.49l-2.1-2.1Z"/>
    <path class="cls-1" d="m51.6,22.49v-10.05h7.13v1.47h-5.63v2.81h3.37v1.47h-3.37v2.83h5.63v1.47h-7.13Z"/>
    <path class="cls-1" d="m63.08,22.39v-9.95h5.35l1.86,1.85v2.04l-1.86,1.86h-1.36l3.47,3.49-1.06,1.06-4.52-4.55h-.38v4.2h-1.5Zm1.5-5.67h3.22l.99-.98v-.84l-.99-.99h-3.22v2.81Z"/>
    <path class="cls-1" d="m74.56,16.19v-3.65h1.5v3.32l2.1,4.31,2.11-4.31v-3.32h1.5v3.65l-3.07,6.29h-1.08l-3.07-6.29Z"/>
    <path class="cls-1" d="m86.04,22.49v-1.47h2.76v-7.11h-2.76v-1.47h7.01v1.47h-2.76v7.11h2.76v1.47h-7.01Z"/>
    <path class="cls-1" d="m97.52,20.63v-6.34l1.86-1.85h3.47l2.11,2.09-1.06,1.06-1.67-1.68h-2.23l-.99.99v5.11l.99,1.01h2.23l1.67-1.71,1.06,1.08-2.11,2.1h-3.47l-1.86-1.86Z"/>
    <path class="cls-1" d="m109,22.49v-10.05h7.13v1.47h-5.63v2.81h3.37v1.47h-3.37v2.83h5.63v1.47h-7.13Z"/>
  </g>
</svg>