<?xml version="1.0" encoding="UTF-8"?>
<svg id="Layer_1" data-name="Layer 1" xmlns="http://www.w3.org/2000/svg" viewBox="0 0 140 35">
  <defs>
    <style>
      .cls-1 {
        fill: #411c0a;
      }
    </style>
  </defs>
  <path class="cls-1" d="m15.16,12.48h10.04v10.04h-10.04v-10.04Zm1.1,8.93h7.82v-7.82h-7.82v7.82Z"/>
  <g>
    <path class="cls-1" d="m35.84,13.91v-1.47h7.01v1.47h-2.74v8.48h-1.51v-8.48h-2.76Z"/>
    <path class="cls-1" d="m47.08,20.39l1.08-1.08,1.67,1.71h2.21l1.01-1.01v-.83l-1.01-.99h-2.86l-1.86-1.86v-2.04l1.86-1.85h3.49l2.11,2.09-1.06,1.06-1.68-1.68h-2.21l-1.01.99v.84l1.01.98h2.84l1.88,1.86v2.04l-1.88,1.86h-3.49l-2.1-2.1Z"/>
    <path class="cls-1" d="m58.8,20.61v-8.08h1.5v7.46l1.01,1.01h2.21l.99-1.01v-7.46h1.5v8.08l-1.86,1.86h-3.49l-1.86-1.86Z"/>
    <path class="cls-1" d="m70.32,22.39v-9.95h1.27l4.44,6.94v-6.85h1.5v9.95h-1.27l-4.44-6.96v6.86h-1.5Z"/>
    <path class="cls-1" d="m81.76,22.49v-10.05h5.35l1.86,1.85v6.34l-1.86,1.86h-5.35Zm1.5-1.47h3.22l.99-1.01v-5.11l-.99-.99h-3.22v7.11Z"/>
    <path class="cls-1" d="m93.24,22.49v-10.05h7.13v1.47h-5.63v2.81h3.37v1.47h-3.37v2.83h5.63v1.47h-7.13Z"/>
    <path class="cls-1" d="m104.72,22.39v-9.95h5.35l1.86,1.85v2.04l-1.86,1.86h-1.36l3.47,3.49-1.06,1.06-4.52-4.55h-.38v4.2h-1.5Zm1.5-5.67h3.22l.99-.98v-.84l-.99-.99h-3.22v2.81Z"/>
    <path class="cls-1" d="m116.2,22.49v-10.05h7.13v1.47h-5.63v2.81h3.37v1.47h-3.37v2.83h5.63v1.47h-7.13Z"/>
  </g>
</svg>